<svg xmlns="http://www.w3.org/2000/svg" xmlns:xlink="http://www.w3.org/1999/xlink" preserveAspectRatio="xMidYMid meet" version="1.0" viewBox="14.5 12.4 434.9 371.6" zoomAndPan="magnify" style="fill: rgb(0, 0, 0);" original_string_length="4504" width="60.77386295059457px" height="51.93402833959899px">
    <g id="__id1_s52ifq0o9g">
        <path d="M57.1,53.2c10.8-2.1,20.7-4.3,30.6-5.8c1.8-0.3,3.9,2.1,5.9,3.2c-1.4,1.4-2.7,3.3-4.4,4.3 c-9.7,5.1-19.6,9.9-29.8,15c1.6,15.4,3.4,31.9,4.8,48.4c0.1,3-0.7,5.9-2.3,8.4c-0.8,1.4-3.7,2.2-5.6,1.9c-1-0.1-2.2-2.8-2.5-4.4 c-2.6-15-4.9-30-7.5-45c-1.6-9.1-2.2-9.2-11.4-7.3c-5.8,1.2-11.8,1.4-17.6,2.1c-2.8-4.2-2.2-7.1,2.3-8.8c1.6-0.6,3.1-1.3,4.7-1.9 c5.4-1.9,12.7-2.4,15.6-6.2c2.7-3.5,0.2-10.7,0.9-16.2c0.5-4.3,2.5-8.3,3.8-12.5h3.3L57.1,53.2z M198.9,66.5c1.6-0.4,3.8-2.5,3.8-4 s-2.1-4-3.5-4.1c-4.8-0.3-9.5-0.1-14.3,0.4c-4.2,0.4-7.1,0.2-7.1-5.2c0-3.8-0.2-7.9-1.6-11.4c-1-2.6-4-4.5-6.1-6.7 c-1.5,2.3-4.1,4.6-4.2,7c-0.2,6.6,0.6,13.3,1.1,20.4c-3.8,0.6-7.7,0.5-10.8,2c-2.7,1.4-6.1,4.6-6.2,7.1c-0.1,5.2,4.3,2.7,7.1,2.4 c1.9-0.2,3.8-0.7,5.6-1.3c5.2-1.9,7.1,0.4,7.4,5.4c0.4,5.5,0.6,11.1,1.8,16.5c0.5,2.4,3.3,4.4,5,6.5c1.4-2.4,3.9-4.7,4-7.1 c0.5-7.9,0.2-15.9,0.2-24.3C187.6,68.9,193.3,68,198.9,66.5z M222.9,153.7c-1.9,0.5-3.3,3.2-5,4.9c2.1,0.7,4.3,1.3,6.5,1.7 c1.5,0.2,4-0.8,4.4-0.2c3.8,5.9,6,0.2,10.4-2.7c1.5,5.7,3.1,10.2,3.7,14.8c0.7,5.2,0.2,10.6,0.9,15.9c0.3,1.9,3,5.1,3.8,4.9 c2.4-0.7,5.1-2.4,6.2-4.5c1.3-2.4,1.2-5.6,1.3-8.4c0.2-6.4,0-12.9,0-19.4c4.1-0.8,7.9-1.6,11.7-2.2c3.4-0.5,7.7-0.2,6.6-5.1 c-0.3-1.4-4.7-2.6-7.3-2.6c-18.1,0-13.9,2.7-16.7-14.3c-0.5-3.1,0.5-7.2-4.2-6.2c-2.1,0.4-4.5,3.9-4.9,6.4 c-0.8,4.6-0.2,9.5-0.2,14.5C234.2,151.8,228.4,152.3,222.9,153.7L222.9,153.7z M243.4,35.9c-2.1,0.6-3.7,3-5.5,4.6 c1.9,1.4,3.7,3.7,5.7,3.9c3.9,0.4,7.9-0.5,12.5-0.9c1,9.8,1.9,18.9,3.1,27.9c0.2,1.5,2.5,3.9,3.7,3.8c1.5-0.1,3.6-2,4.2-3.6 c0.8-2.2,0.4-4.8,0.5-7.2c0-6.7,0-13.4,0-20.3c1.9-0.3,4.2,0.1,5.6-0.9c2.5-1.7,6.2-4.1,6.3-6.2c0.1-5-4.4-4-7.6-3.3 c-6.3,1.5-9.8-0.2-9.7-7.3c0.1-2.9-0.4-5.7-1.6-8.3c-1.1-2.2-3.6-3.8-5.4-5.7c-1.3,2.4-3.8,4.9-3.8,7.3c0,5,1.4,9.9,2.5,16.2 C249.5,35.7,246.3,35.1,243.4,35.9L243.4,35.9z M278.4,356.9c1.6-0.8,2.2-3.4,3.2-5.2c-1.9-1-3.8-2.8-5.6-2.7 c-4.2,0.1-8.4,1.2-13.3,2c-1-6.3-1.5-12-3-17.4c-0.5-2.1-3.1-3.7-4.7-5.5c-1.1,2.1-3,4.1-3,6.2c0,5.4,0.8,10.9,1.3,16.2 c-15,2.9-15.5,3.4-12,11.9l14.4-1.4c1.1,6.5,1.8,12.5,3.3,18.2c0.5,1.9,3.3,3.2,5.1,4.8c1.1-2,3.1-4,3.2-6.1 c0.2-5.3-0.4-10.6-0.8-16.6C270.8,359.8,274.8,358.8,278.4,356.9L278.4,356.9z M328.1,107.9c-0.3-2.6,0.3-5.4-0.4-7.9 c-0.8-3.1-2.1-6.1-3.7-8.9c-0.4-0.6-4.4,0.1-4.4,0.4c-0.2,2.9-0.2,5.8,0.1,8.7c0.1,2.2,0.4,4.3,0.5,6.5c0.1,10.3-0.2,10.4-10,11.6 c-2.1,0.2-3.9,2.6-5.8,3.9c2.4,1.3,4.8,3.5,7.3,3.8c3.1,0.4,6.3-0.8,9.6-1.3c0.7,6.3,1,11.6,2.2,16.7c0.4,1.8,3,3.2,4.6,4.8 c1.3-1.9,3.7-3.9,3.7-5.8c0-4.2-1.8-8.4-1.8-12.7c0-2.1,1.8-5.3,3.5-6.1c4.4-1.9,9.3-2.5,13.8-4.1c1.8-0.6,3.1-2.6,4.7-3.9 c-2-1.1-4.2-3.4-6-3.2c-5.2,0.8-10.3,2.5-15.9,4.1C329.2,112.4,328.6,110.2,328.1,107.9L328.1,107.9z M125.3,178.2 c-0.7-2.1-3.9-3.4-6-5c-1.5,1.9-4.1,3.7-4.3,5.8c-0.4,3.7,0.4,7.6,1.1,11.4c0.7,3.8,0.2,6.6-4.4,7.3c-1.6,0.2-3.6,0.7-4.6,1.8 c-1.3,1.3-1.8,3.4-2.7,5.1c1.8,0.6,3.5,1.8,5.3,1.8c2.8,0,5.6-0.7,8.7-1.2c0.9,4.7,1.3,9,2.6,13c0.7,2.1,3,3.6,4.6,5.4 c1.9-2.2,5.7-4.7,5.3-6.5c-1.8-8.9-2.1-16.3,9-19c0.9-0.2,1.6-3.7,1.3-5.6c-0.1-0.8-3-1.6-4.6-1.6c-2.8,0.1-5.6,1-8.9,1.6 C126.9,187.1,126.7,182.4,125.3,178.2z M370.3,222.3c-5.2,0.6-7.7-1.1-7.3-6.7c0.3-3.6,0.2-7.3-0.3-10.8c-0.3-1.6-2.6-4.4-3.4-4.2 c-1.9,0.4-4.3,2-4.9,3.8c-0.9,2.8-1.1,5.7-0.5,8.6c1.2,7.1-1,11.4-8.5,12.7c-1.4,0.2-2.7,1.7-3.9,2.5c2.3,9.8,9.1,1.3,13.5,4 c0.4,2.3,1.1,4.9,1.4,7.5c0.3,2.9-0.4,6,0.5,8.6c0.8,2.3,3.3,4.1,5.1,6.1c1.5-2.1,3.6-4,4.4-6.3c0.7-1.9,0-4.3-0.3-6.4 c-1.2-10.6-1.1-11.2,9.6-11.6c5.9-0.2,7.5-2.2,5.1-8.3C376.9,221.8,373.6,221.9,370.3,222.3L370.3,222.3z M118.1,342.2 c0.7,1.7,2.2,2.9,4,3.3c1,0.1,3.2-2,3.4-3.3c0.9-5.1,1.2-10.3,1.8-16.2l15.6-4.5c-0.6-1.9-1-5.1-1.7-5.1c-5.8-0.4-11.6-0.2-18.6-0.2 c0-3.1,0.5-7.3-0.2-11.1c-0.4-1.8-3.2-3.1-4.9-4.7c-1.3,1.6-3.7,3.2-3.8,4.9c-0.3,4.4,0.4,9,0.8,13.7c-3.3,0.4-6.3,0.2-8.9,1.3 c-1.7,0.7-2.8,3.2-4.1,4.8c1.7,1.2,3.2,3.2,5,3.6c2.7,0.6,5.7,0.2,9.2,0.2C116.6,333.7,117,338,118.1,342.2z M434.2,310.8 c-0.5-1.7-2.4-4-3.9-4.1c-2-0.2-5.5,0.7-6.2,2.2c-1.1,2.4-0.2,5.7-0.8,8.5c-0.9,3.2-1.9,6.4-3.2,9.5c1.3,2.3,3.4,5.3,4.5,8.7 c1.5,4.4,1.9,9.2,3.4,13.6c0.5,1.6,2.8,2.5,4.3,3.8c1.2-1.8,3.2-3.5,3.4-5.3c0.4-3.8-0.5-7.8-0.1-11.6c0.2-1.8,2.2-4,3.9-4.9 c3.3-1.7,9.9,0.3,8.7-5.9s-7.2-2.4-12.5-3.1C435.4,318.3,435.2,314.5,434.2,310.8L434.2,310.8z" style="fill: rgb(245, 247, 249);"/>
    </g>
</svg>